<?xml version="1.0" encoding="UTF-8" standalone="no"?>
<svg
   xmlns:dc="http://purl.org/dc/elements/1.1/"
   xmlns:cc="http://creativecommons.org/ns#"
   xmlns:rdf="http://www.w3.org/1999/02/22-rdf-syntax-ns#"
   xmlns:svg="http://www.w3.org/2000/svg"
   xmlns="http://www.w3.org/2000/svg"
   version="1.1"
   id="svg2"
   viewBox="0 0 460 460.00001"
   height="460"
   width="460">
  <defs
     id="defs4" />
  <metadata
     id="metadata7">
    <rdf:RDF>
      <cc:Work
         rdf:about="">
        <dc:format>image/svg+xml</dc:format>
        <dc:type
           rdf:resource="http://purl.org/dc/dcmitype/StillImage" />
        <dc:title></dc:title>
      </cc:Work>
    </rdf:RDF>
  </metadata>
  <g
     transform="translate(0,-592.36216)"
     id="layer1">
    <path
       style="fill:#000000;fill-opacity:1;stroke:none"
       d="m 232.53869,866.40768 0,-13.18227 c 33.22366,0 61.62454,-11.78883 85.20261,-35.36724 2.57218,-2.57188 3.85823,-5.73353 3.85823,-9.48459 0,-3.75106 -1.28605,-6.91272 -3.85823,-9.48497 -2.57214,-2.57225 -5.73375,-3.85819 -9.48481,-3.85819 -3.75106,0 -6.91268,1.28594 -9.48482,3.85819 -18.21942,18.21965 -40.2971,27.32909 -66.23298,27.32909 -26.15025,0 -48.3351,-9.10944 -66.55456,-27.32909 -18.21942,-18.21927 -27.32913,-40.2971 -27.32913,-66.23275 0,-26.15029 9.10971,-48.33525 27.32913,-66.55452 l 9.64563,-9.32409 -27.65071,-27.32946 c -2.57214,-2.57188 -5.73376,-3.85819 -9.48482,-3.85819 -3.75106,0 -6.91267,1.28631 -9.48481,3.85819 -2.57218,2.57225 -3.80466,5.68053 -3.6975,9.32408 0.10713,3.64393 1.44686,6.75221 4.019,9.32408 l 9.00254,9.32408 c -17.57637,21.86358 -26.36458,46.94181 -26.36458,75.23583 0,33.2235 11.78905,61.62427 35.36713,85.20231 16.50466,16.50481 35.90303,27.22196 58.19505,32.1522 l 0,16.39731 -53.37224,0 c -3.64389,0 -6.80551,1.33969 -9.48486,4.01907 -2.6793,2.67938 -4.01896,5.84104 -4.01896,9.48497 0,3.64393 1.33966,6.80521 4.01896,9.48459 2.67935,2.67938 5.84097,4.01907 9.48486,4.01907 l 133.75208,0 c 3.64389,0 6.80547,-1.33969 9.48482,-4.01907 2.67934,-2.67938 4.01899,-5.84066 4.01899,-9.48459 0,-3.64393 -1.33965,-6.80559 -4.01899,-9.48497 -2.67935,-2.67938 -5.84093,-4.01907 -9.48482,-4.01907 z"
       id="path4284" />
    <g
       transform="matrix(0.48228937,-0.87601196,0.87601196,0.48228937,-521.28342,582.76165)"
       id="g4263">
      <path
         d="m 283.84414,680.95009 c 0,0 -10.20664,-3.35027 -12.51108,-5.95987 l -8.56297,-0.66775 -1.93884,2.00626 0.96343,2.30893 1.63668,0 0.30166,3.13352 -2.75843,-1.64168 -1.85344,3.28485 -0.82258,-0.30316 -1.11875,0 c 0,0 -0.30816,-0.36859 -0.66776,-0.22226 -0.30167,0.22226 -0.66776,-0.96942 -0.66776,-0.96942 l -1.64317,0.30167 -0.66726,0.66775 -1.11875,-0.82158 -1.79251,0 -0.36309,1.04384 1.17669,0.14933 -1.03335,1.26809 0.37508,0.66875 c -1.49384,0.15683 -3.94461,-0.97092 -3.94461,-0.97092 0,0 -0.67375,-0.29567 -1.64916,0 -1.03635,0.30167 -2.32591,2.1581 -2.32591,2.1581 l -1.68862,1.7955 1.86242,1.7985 1.26509,0 1.70111,0.51343 0.30766,0.66926 3.27985,-0.15583 2.68251,-2.1551 2.6031,-0.51543 2.6096,1.03635 c 0,0 2.82286,-0.52092 2.45427,-0.21926 -0.29617,0.3631 1.48784,2.82885 1.48784,2.82885 l 1.19517,2.82286 1.11526,1.64317 0.22575,1.79251 0.81409,-0.14634 2.75843,0.30166 -0.96043,-1.49683 -1.64017,-1.11875 -1.19767,-3.12453 -0.82009,-2.00876 1.19517,-0.45549 0.96893,1.7905 1.10976,1.64018 2.68301,1.3445 0,1.78302 0.67076,1.04883 2.60959,0.95743 2.31043,-1.19217 0.67375,-1.11576 -0.97541,-1.33851 2.46026,0 1.99977,2.16759 3.28934,1.63518 -0.22575,1.78801 2.00627,2.00876 -0.82009,0.82309 -4.09394,-1.78951 -3.35327,-1.86692 -6.02379,0.37208 0.14633,2.6126 3.80127,2.46325 4.08795,1.7116 3.27985,1.94483 -0.29567,2.44928 -1.19217,2.31192 -1.93585,-1.26808 -4.3137,-4.47352 -0.97841,0.15682 -3.64294,-2.83335 -1.63968,0 -0.52441,2.00877 -1.11326,-0.15383 -0.14634,-1.33202 -6.62962,-4.92352 1.48784,-1.69961 2.00827,-0.60982 -1.18868,-1.71659 -1.12475,0 -2.81986,-1.92935 -2.6066,0.66726 -3.43568,-2.83035 -2.1491,0.14034 -2.46926,-0.28968 -2.51769,-0.97591 -3.13102,0.30166 -3.27485,2.30943 -3.12602,0.51493 -1.48935,0.97542 -1.7895,0.52142 -0.98141,1.26509 -2.81837,-0.14934 -3.12602,2.83035 -0.30616,1.63518 -0.66326,2.62458 -2.97818,3.12452 -0.37209,1.48335 0,2.31343 1.19517,2.98318 1.48884,2.97669 3.27836,5.96386 1.33551,0.81859 2.45826,0.15682 3.12752,2.45077 5.43545,0.37509 0.81609,1.27408 1.18568,-0.14934 2.10067,2.46176 1.85943,-0.30166 0.59434,4.09245 -1.4419,2.01176 -1.68912,1.49184 0.67675,4.10493 0.51492,6.62762 c 0,0 -0.51492,2.10016 -0.81709,2.46725 -0.37508,0.30167 -2.68551,1.78152 -2.68551,1.78152 l -3.27335,9.75614 1.01636,4.92152 -0.64328,4.33168 -2.00876,2.60361 -0.15233,2.53268 -0.51993,1.63717 2.00727,0.60983 2.13363,-0.98491 3.1435,0 4.62135,1.49833 3.42969,-1.7925 4.46852,-2.67652 2.6036,-0.30167 0.37159,-3.9526 1.27758,-1.48434 2.9657,-0.37509 2.17058,-1.78801 1.78651,0 6.39888,-5.74011 c 0,0 0.51792,-1.87142 0.51792,-2.52968 0,-0.60383 0.67975,-3.42919 0.67975,-3.42919 l 2.44777,-3.65643 2.45677,-0.14933 2.67352,-1.17969 5.07585,-3.73584 2.1581,-3.65943 0.82259,-1.47835 -1.78602,-0.67675 -0.83257,0.96043 -2.37436,-1.93235 -0.14633,0.67076 -0.30816,-3.19644 c 0,0 0.82308,-0.81859 -0.3631,-1.64118 -1.12474,-0.81859 -1.93834,-3.28634 -1.93834,-3.28634 l -0.82059,-2.30443 -0.30166,-3.65344 0.30166,-1.41892 -0.14933,-2.53618 0.14933,-5.06636 1.93585,0.448 -0.58835,5.29511 1.11526,2.45077 0,4.03152 0.29567,2.75093 1.18618,3.5046 2.83835,3.59051 1.26459,-0.97841 2.00876,0 6.55421,-7.23245 0.37158,-2.1611 -1.33851,-1.84894 -2.01475,-2.61559 -0.59734,0 -1.33851,0.95893 -0.30766,-2.29544 -1.03035,-1.79251 c 0,0 -0.97242,0.51543 -0.82308,-1.12325 0.15233,-1.7086 0.37508,-2.68101 0.37508,-2.68101 l 1.47536,-0.82459 1.12175,2.97819 0.67375,2.30943 1.7925,1.49533 2.00877,1.79401 2.90227,2.83035 1.04883,3.42469 0.66426,3.35776 1.63368,0.59733 -0.13685,5.14078 -0.5329,8.2658 1.49333,0.82309 c 0.004,0.002 12.02967,-38.81522 -19.1307,-69.4547 z"
         id="path4242"
         style="fill:#6bab5b;fill-opacity:1;stroke:none" />
      <path
         d="m 235.86204,659.61134 c 14.27012,-1.09428 32.73707,9.42102 32.73707,9.42102 l -4.60937,0 -8.57796,-4.13191 -1.75305,1.70411 -5.95037,0.48146 -2.19206,-1.09128 -7.46919,-3.34428 -1.09278,1.08529 -0.41904,2.01676 -2.19156,-0.67375 0.24073,-3.09856 1.27758,-2.36886 z"
         id="path4244"
         style="fill:#6bab5b;fill-opacity:1;stroke:none" />
      <polygon
         points="193.847,49.842 192.529,53.013 203.46,52.519 202.124,48.124 200.781,44.969 199.939,40.22 197.241,39.384 197.748,45.454 "
         id="polygon4246"
         style="fill:#6bab5b;fill-opacity:1;stroke:none"
         transform="matrix(0.49944411,0,0,0.49944411,154.89516,654.47306)" />
      <path
         d="m 263.31599,775.06234 2.17957,-1.94533 0.67075,-1.76154 2.01476,-1.51831 3.69439,-0.24823 3.27735,-2.61109 0.67075,1.76504 -1.93584,1.93734 -1.59123,0.24023 -2.59711,2.86232 -4.86858,5.46391 -4.36814,0.43302 0,-1.94383 1.33502,-1.51482 c -0.41754,-0.92047 -0.41754,-0.67075 -0.41754,-0.92047 0,-0.23824 0,0.24972 0,0.24972 0,0 1.93585,0 1.93585,-0.48796 z"
         id="path4248"
         style="fill:#6bab5b;fill-opacity:1;stroke:none" />
      <path
         d="m 170.87687,771.5982 -1.33501,-9.48495 -0.84606,-1.51481 -0.67375,-2.18906 0.42553,-3.10954 1.76004,-1.09129 -0.18729,-3.7743 2.37335,-1.76453 0,-2.42231 5.70965,-7.48517 2.18107,0.66427 0.91598,-1.0853 5.9319,-11.01224 3.30432,-0.66276 1.31853,-1.51831 -0.22724,-1.52131 -2.00727,-3.76781 -2.85482,-1.76803 0,-4.18834 -4.11992,-2.19805 0.17231,-5.46542 0.91598,-1.75604 -0.91598,-1.51981 -2.43529,-1.349 -0.58984,-2.4248 0.41903,-4.20232 -2.68451,-3.52058 -3.44417,1.3415 -2.85332,0 c 0,0 -8.39216,14.94936 -10.1527,25.71938 -1.76653,10.81546 0.24223,0.90849 0.24223,0.90849 l 1.51831,5.95936 1.09428,5.71564 -0.1783,5.04638 2.18707,3.94611 -1.09428,3.95061 -0.24673,6.81741 1.34151,3.76331 0.84556,4.37763 0.66775,4.02102 1.34151,2.17908"
         id="path4250"
         style="fill:#6bab5b;fill-opacity:1;stroke:none" />
      <path
         d="m 227.5473,660.03537 -1.09429,1.94483 -3.28434,0.23924 -2.00277,3.7758 c 0,0 -3.10305,3.52707 -2.6031,2.35937 0.42053,-1.08679 -0.49995,-1.26809 -0.49995,-1.94184 0,-0.66176 -3.47663,-0.66176 -3.47663,-0.66176 l -1.74805,2.00876 -7.4562,0.59584 c 0,0 -2.21154,0.67675 -2.85632,1.1657 -0.67226,0.42053 -0.67226,0.42053 -0.67226,0.42053 l -0.91598,0 c -1.09278,0.1828 -1.09278,0.1828 -1.09278,0.1828 l 0,0 -1.08829,1.09578 -0.67375,0.91149 -0.42003,1.09528 c -0.84456,0.91598 -0.84456,0.91598 -0.84456,0.91598 l -3.7723,-0.67675 -3.94611,0 c 0.001,0 19.77799,-14.35203 38.44771,-13.43105 z"
         id="path4252"
         style="fill:#6bab5b;fill-opacity:1;stroke:none" />
      <path
         d="m 193.29142,794.03123 20.40879,6.38639 3.09705,3.28135 c 0,0 -14.52533,-3.28135 -23.50584,-9.66774 z"
         id="path4254"
         style="fill:#6bab5b;fill-opacity:1;stroke:none" />
    </g>
    <circle
       id="circle5"
       r="79.682037"
       cy="908.07227"
       cx="129.17586"
       style="fill:#d66661;stroke:#c93d39;stroke-width:14.48764133" />
    <circle
       id="circle9"
       r="79.682037"
       cy="906.86487"
       cx="336.83206"
       style="fill:#aa7dc0;stroke:#945bb0;stroke-width:14.48764133" />
    <circle
       transform="matrix(0.48228937,-0.87601196,0.87601196,0.48228937,0,0)"
       id="circle7"
       r="79.682037"
       cy="556.81879"
       cx="-529.51532"
       style="fill:none;stroke:#3b972e;stroke-width:14.48764133" />
  </g>
</svg>
